<svg width="64" height="64" viewBox="0 0 64 64" fill="none" xmlns="http://www.w3.org/2000/svg">
  <rect x="5" y="5" width="54" height="54" rx="14" fill="#071426"/>
  <path d="M18 18h17.5c8.2 0 13.5 4.1 13.5 10.6 0 3.7-1.8 6.6-5.2 8.4 4.2 1.5 6.4 4.8 6.4 9.2 0 7.2-5.8 11.8-14.8 11.8H18V18Zm9.4 8v8h7.2c3 0 4.8-1.5 4.8-4s-1.8-4-4.8-4h-7.2Zm0 15.8V50h8.2c3.4 0 5.2-1.5 5.2-4.1 0-2.7-1.9-4.1-5.2-4.1h-8.2Z" fill="#39C5BB"/>
  <path d="M14 14h36" stroke="#F4D35E" stroke-width="4" stroke-linecap="round"/>
</svg>
